# xmcd
#
# Track frame offsets: 
#        182
#        8445
#        16302
#        30012
#        38440
#        44920
#        52932
#        59570
#        65780
#        72882
#        77620
#        89692
#        98787
#        104987
#        111760
#        118595
#        130652
#        136160
#        141482
#        154965
#        160075
#        170327
#        180345
#        191760
#        205097
#        219057
#        231285
#        246200
#        262432
#        273660
#
# Disc length: 3754 seconds
#
# Revision: 3
# Processed by: cddbd v1.5.2PL0 Copyright (c) Steve Scherf et al.
# Submitted via: ExactAudioCopy v0.99pb5
#
DISCID=ad0ea81e
DTITLE=Eric Darling - BlueGrass Music from the Appalachian Mountains
DYEAR=1900
DGENRE=
TTITLE0=Cripple Creek
TTITLE1=Pateroller Song
TTITLE2=One Dime Blues
TTITLE3=Sourwood Mountain
TTITLE4=Goin Down Road Feelin' Bad
TTITLE5=Amazing Grace
TTITLE6=Girl I Left Behind Me
TTITLE7=Marching Jaybird
TTITLE8=John Brown's Dream
TTITLE9=Sally Goodin
TTITLE10=Railroad Bill
TTITLE11=Soldier's Joy
TTITLE12=Molly Brooks
TTITLE13=Pretty Polly
TTITLE14=Johnson Boys
TTITLE15=John Henry
TTITLE16=Drunken Hiccups
TTITLE17=Shady Grove
TTITLE18=Bully of the Town
TTITLE19=Skip to My Lou
TTITLE20=Hard and It's Hard
TTITLE21=Bowling Green
TTITLE22=I'll Fly Away
TTITLE23=The Darby Run
TTITLE24=Willie Moore
TTITLE25=Little Birdie
TTITLE26=The Banks of the Ohio
TTITLE27=The Wagoner's Lad
TTITLE28=Poor Ellen Smith
TTITLE29=What Will We Do With the Baby-O
EXTD=
EXTT0=
EXTT1=
EXTT2=
EXTT3=
EXTT4=
EXTT5=
EXTT6=
EXTT7=
EXTT8=
EXTT9=
EXTT10=
EXTT11=
EXTT12=
EXTT13=
EXTT14=
EXTT15=
EXTT16=
EXTT17=
EXTT18=
EXTT19=
EXTT20=
EXTT21=
EXTT22=
EXTT23=
EXTT24=
EXTT25=
EXTT26=
EXTT27=
EXTT28=
EXTT29=
PLAYORDER=
